General
Complete name                    : Orlando.mkv
Format                           : Matroska
File size                        : 876 MiB
Duration                         : 1h 29mn
Overall bit rate                 : 1 365 Kbps


Video
ID                               : 1
Format                           : AVC
Duration                         : 1h 29mn
Bit rate                         : 1 210 Kbps
Width                            : 720 pixels
Height                           : 416 pixels
Display aspect ratio             : 16:9
Frame rate                       : 25.000 fps
Resolution                       : 8 bits
Colorimetry                      : 4:2:0
Scan type                        : Progressive
Bits/(Pixel*Frame)               : 0.162
Stream size                      : 777 MiB (89%)
Writing library                  : x264 core 79
    

Audio
ID                               : 2
Format                           : AC-3
Format/Info                      : Audio Coding 3
Codec ID                         : A_AC3
Duration                         : 1h 29mn
Bit rate mode                    : Constant
Bit rate                         : 128 Kbps
Channel(s)                       : 2 channels
Channel positions                : L R
Sampling rate                    : 48.0 KHz
Stream size                      : 82.2 MiB (9%)

Text #1
Language                         : Swedish

Text #2
Language                         : Norwegian

Text #3
Language                         : Danish

Text #4
Language                         : Finnish



